<?xml version="1.0" encoding="UTF-8" standalone="no"?>
<!DOCTYPE svg PUBLIC "-//W3C//DTD SVG 1.1//EN" "http://www.w3.org/Graphics/SVG/1.1/DTD/svg11.dtd">
<svg version="1.1" xmlns="http://www.w3.org/2000/svg" xmlns:xlink="http://www.w3.org/1999/xlink" preserveAspectRatio="xMidYMid meet" viewBox="0 0 640 640" width="640" height="640"><defs><path d="M147.53 510.3L492.58 510.3L492.58 627.56L147.53 627.56L147.53 510.3Z" id="b2qAYRtYbU"></path><path d="M419.75 457.07C419.75 491.11 375.06 518.75 320 518.75C264.94 518.75 220.25 491.11 220.25 457.07C220.25 423.02 264.94 395.39 320 395.39C375.06 395.39 419.75 423.02 419.75 457.07Z" id="b1SuKnrTb"></path><path d="M323.05 446.41C323.05 486.33 292 518.75 253.75 518.75C215.51 518.75 184.46 486.33 184.46 446.41C184.46 406.48 215.51 374.06 253.75 374.06C292 374.06 323.05 406.48 323.05 446.41Z" id="af2bGV6R8"></path><path d="M458.59 446.41C458.59 486.33 427.54 518.75 389.29 518.75C351.05 518.75 320 486.33 320 446.41C320 406.48 351.05 374.06 389.29 374.06C427.54 374.06 458.59 406.48 458.59 446.41Z" id="bHhqbIGnz"></path><path d="M36.73 25.31L258.32 25.31L258.32 113.65L36.73 113.65L36.73 25.31Z" id="hkYswYsEo"></path><path d="M419.75 457.07L352.08 233.95L288.02 233.95L220.25 457.07L419.75 457.07Z" id="c6lvIgUB6Q"></path><path d="M381.78 25.31L603.37 25.31L603.37 113.64L381.78 113.64L381.78 25.31Z" id="bKWEqGsL7"></path><path d="M288.02 233.95C288.02 307.29 225.07 366.83 147.53 366.83C69.99 366.83 7.03 307.29 7.03 233.95C7.03 160.62 69.99 101.08 147.53 101.08C225.07 101.08 288.02 160.62 288.02 233.95Z" id="chk8CWaGN"></path><clipPath id="clipa1ehXWXupW"><use xlink:href="#chk8CWaGN" opacity="1"></use></clipPath><path d="M275.71 212.39L361.98 212.39L361.98 255.51L275.71 255.51L275.71 212.39Z" id="aqUfRLfqg"></path><path d="M633.07 233.95C633.07 307.29 570.12 366.83 492.58 366.83C415.04 366.83 352.08 307.29 352.08 233.95C352.08 160.62 415.04 101.08 492.58 101.08C570.12 101.08 633.07 160.62 633.07 233.95Z" id="d186rbcybt"></path><clipPath id="clipa18oN0KJXV"><use xlink:href="#d186rbcybt" opacity="1"></use></clipPath><path d="M0 212.39L18.51 212.39L18.51 255.51L0 255.51L0 212.39Z" id="c2KUCFa8NR"></path><path d="M623.82 212.39L642.32 212.39L642.32 255.51L623.82 255.51L623.82 212.39Z" id="b3zAy2pGAL"></path></defs><g><g><g><use xlink:href="#b2qAYRtYbU" opacity="1" fill="#062324" fill-opacity="1"></use></g><g><use xlink:href="#b1SuKnrTb" opacity="1" fill="#ffe0bd" fill-opacity="1"></use></g><g><use xlink:href="#af2bGV6R8" opacity="1" fill="#ffe0bd" fill-opacity="1"></use></g><g><use xlink:href="#bHhqbIGnz" opacity="1" fill="#ffe0bd" fill-opacity="1"></use></g><g><use xlink:href="#hkYswYsEo" opacity="1" fill="#062324" fill-opacity="1"></use></g><g><use xlink:href="#c6lvIgUB6Q" opacity="1" fill="#ffe0bd" fill-opacity="1"></use></g><g><use xlink:href="#bKWEqGsL7" opacity="1" fill="#062324" fill-opacity="1"></use></g><g><g clip-path="url(#clipa1ehXWXupW)"><use xlink:href="#chk8CWaGN" opacity="1" fill-opacity="0" stroke="#062324" stroke-width="44" stroke-opacity="1"></use></g></g><g><use xlink:href="#aqUfRLfqg" opacity="1" fill="#062324" fill-opacity="1"></use></g><g><g clip-path="url(#clipa18oN0KJXV)"><use xlink:href="#d186rbcybt" opacity="1" fill-opacity="0" stroke="#062324" stroke-width="44" stroke-opacity="1"></use></g></g><g><use xlink:href="#c2KUCFa8NR" opacity="1" fill="#062324" fill-opacity="1"></use></g><g><use xlink:href="#b3zAy2pGAL" opacity="1" fill="#062324" fill-opacity="1"></use></g></g></g></svg>
